<svg xmlns="http://www.w3.org/2000/svg" viewBox="0 0 280 72" fill="none">
  <rect x="4" y="4" width="64" height="64" rx="20" fill="#0f172a" />
  <path d="M24 20H38C46.837 20 54 27.163 54 36C54 44.837 46.837 52 38 52H24V20Z" fill="#22d3ee" />
  <path d="M30 28H38C42.418 28 46 31.582 46 36C46 40.418 42.418 44 38 44H30V28Z" fill="#e0f2fe" />
  <path d="M92 25H118.88V32.84H100.88V38.12H116.72V45.76H100.88V58H92V25Z" fill="#0f172a" />
  <path d="M125.206 25H151.366V32.6H134.086V37.72H149.566V45.2H134.086V50.4H151.846V58H125.206V25Z" fill="#0f172a" />
  <path d="M158.31 25H167.19V50.04H183.03V58H158.31V25Z" fill="#0f172a" />
  <path d="M188.521 25H197.401V50.04H213.241V58H188.521V25Z" fill="#0f172a" />
  <path d="M218.732 25H244.892V32.6H227.612V37.72H243.092V45.2H227.612V50.4H245.372V58H218.732V25Z" fill="#0f172a" />
</svg>
